<mxfile host="Electron" modified="2023-08-09T01:54:08.144Z" agent="Mozilla/5.0 (X11; Linux x86_64) AppleWebKit/537.36 (KHTML, like Gecko) draw.io/21.3.7 Chrome/112.0.5615.204 Electron/24.5.0 Safari/537.36" etag="LKdlZxrFo8ZSPKvtgPYi" version="21.3.7" type="device">
  <diagram name="Page-1" id="x5dl8jMQmT85ATINlh2M">
    <mxGraphModel dx="1434" dy="975" grid="1" gridSize="10" guides="1" tooltips="1" connect="1" arrows="1" fold="1" page="1" pageScale="1" pageWidth="1169" pageHeight="827" math="0" shadow="0">
      <root>
        <mxCell id="0" />
        <mxCell id="1" parent="0" />
        <mxCell id="mp0lWMER0TkYlhdWS5gS-2" value="2Meg x 8" style="rounded=1;whiteSpace=wrap;html=1;" parent="1" vertex="1">
          <mxGeometry x="200" y="120" width="40" height="40" as="geometry" />
        </mxCell>
        <mxCell id="mp0lWMER0TkYlhdWS5gS-53" value="" style="rounded=1;whiteSpace=wrap;html=1;" parent="1" vertex="1">
          <mxGeometry x="250" y="120" width="40" height="40" as="geometry" />
        </mxCell>
        <mxCell id="mp0lWMER0TkYlhdWS5gS-54" value="" style="rounded=1;whiteSpace=wrap;html=1;" parent="1" vertex="1">
          <mxGeometry x="300" y="120" width="40" height="40" as="geometry" />
        </mxCell>
        <mxCell id="mp0lWMER0TkYlhdWS5gS-55" value="" style="rounded=1;whiteSpace=wrap;html=1;" parent="1" vertex="1">
          <mxGeometry x="350" y="120" width="40" height="40" as="geometry" />
        </mxCell>
        <mxCell id="mp0lWMER0TkYlhdWS5gS-56" value="" style="rounded=1;whiteSpace=wrap;html=1;" parent="1" vertex="1">
          <mxGeometry x="200" y="170" width="40" height="40" as="geometry" />
        </mxCell>
        <mxCell id="mp0lWMER0TkYlhdWS5gS-57" value="" style="rounded=1;whiteSpace=wrap;html=1;" parent="1" vertex="1">
          <mxGeometry x="250" y="170" width="40" height="40" as="geometry" />
        </mxCell>
        <mxCell id="mp0lWMER0TkYlhdWS5gS-58" value="" style="rounded=1;whiteSpace=wrap;html=1;" parent="1" vertex="1">
          <mxGeometry x="300" y="170" width="40" height="40" as="geometry" />
        </mxCell>
        <mxCell id="mp0lWMER0TkYlhdWS5gS-59" value="" style="rounded=1;whiteSpace=wrap;html=1;" parent="1" vertex="1">
          <mxGeometry x="350" y="170" width="40" height="40" as="geometry" />
        </mxCell>
        <mxCell id="mp0lWMER0TkYlhdWS5gS-60" value="" style="rounded=1;whiteSpace=wrap;html=1;" parent="1" vertex="1">
          <mxGeometry x="200" y="220" width="40" height="40" as="geometry" />
        </mxCell>
        <mxCell id="mp0lWMER0TkYlhdWS5gS-61" value="" style="rounded=1;whiteSpace=wrap;html=1;" parent="1" vertex="1">
          <mxGeometry x="250" y="220" width="40" height="40" as="geometry" />
        </mxCell>
        <mxCell id="mp0lWMER0TkYlhdWS5gS-62" value="" style="rounded=1;whiteSpace=wrap;html=1;" parent="1" vertex="1">
          <mxGeometry x="300" y="220" width="40" height="40" as="geometry" />
        </mxCell>
        <mxCell id="mp0lWMER0TkYlhdWS5gS-63" value="" style="rounded=1;whiteSpace=wrap;html=1;" parent="1" vertex="1">
          <mxGeometry x="350" y="220" width="40" height="40" as="geometry" />
        </mxCell>
        <mxCell id="mp0lWMER0TkYlhdWS5gS-64" value="" style="rounded=1;whiteSpace=wrap;html=1;" parent="1" vertex="1">
          <mxGeometry x="200" y="270" width="40" height="40" as="geometry" />
        </mxCell>
        <mxCell id="mp0lWMER0TkYlhdWS5gS-65" value="" style="rounded=1;whiteSpace=wrap;html=1;" parent="1" vertex="1">
          <mxGeometry x="250" y="270" width="40" height="40" as="geometry" />
        </mxCell>
        <mxCell id="mp0lWMER0TkYlhdWS5gS-66" value="" style="rounded=1;whiteSpace=wrap;html=1;" parent="1" vertex="1">
          <mxGeometry x="300" y="270" width="40" height="40" as="geometry" />
        </mxCell>
        <mxCell id="mp0lWMER0TkYlhdWS5gS-67" value="" style="rounded=1;whiteSpace=wrap;html=1;" parent="1" vertex="1">
          <mxGeometry x="350" y="270" width="40" height="40" as="geometry" />
        </mxCell>
        <mxCell id="mp0lWMER0TkYlhdWS5gS-68" value="" style="rounded=1;whiteSpace=wrap;html=1;" parent="1" vertex="1">
          <mxGeometry x="200" y="320" width="40" height="40" as="geometry" />
        </mxCell>
        <mxCell id="mp0lWMER0TkYlhdWS5gS-69" value="" style="rounded=1;whiteSpace=wrap;html=1;" parent="1" vertex="1">
          <mxGeometry x="250" y="320" width="40" height="40" as="geometry" />
        </mxCell>
        <mxCell id="mp0lWMER0TkYlhdWS5gS-70" value="" style="rounded=1;whiteSpace=wrap;html=1;" parent="1" vertex="1">
          <mxGeometry x="300" y="320" width="40" height="40" as="geometry" />
        </mxCell>
        <mxCell id="mp0lWMER0TkYlhdWS5gS-71" value="" style="rounded=1;whiteSpace=wrap;html=1;" parent="1" vertex="1">
          <mxGeometry x="350" y="320" width="40" height="40" as="geometry" />
        </mxCell>
        <mxCell id="mp0lWMER0TkYlhdWS5gS-72" value="" style="rounded=1;whiteSpace=wrap;html=1;" parent="1" vertex="1">
          <mxGeometry x="200" y="370" width="40" height="40" as="geometry" />
        </mxCell>
        <mxCell id="mp0lWMER0TkYlhdWS5gS-73" value="" style="rounded=1;whiteSpace=wrap;html=1;" parent="1" vertex="1">
          <mxGeometry x="250" y="370" width="40" height="40" as="geometry" />
        </mxCell>
        <mxCell id="mp0lWMER0TkYlhdWS5gS-74" value="" style="rounded=1;whiteSpace=wrap;html=1;" parent="1" vertex="1">
          <mxGeometry x="300" y="370" width="40" height="40" as="geometry" />
        </mxCell>
        <mxCell id="mp0lWMER0TkYlhdWS5gS-75" value="" style="rounded=1;whiteSpace=wrap;html=1;" parent="1" vertex="1">
          <mxGeometry x="350" y="370" width="40" height="40" as="geometry" />
        </mxCell>
        <mxCell id="mp0lWMER0TkYlhdWS5gS-76" value="" style="rounded=1;whiteSpace=wrap;html=1;" parent="1" vertex="1">
          <mxGeometry x="200" y="420" width="40" height="40" as="geometry" />
        </mxCell>
        <mxCell id="mp0lWMER0TkYlhdWS5gS-77" value="" style="rounded=1;whiteSpace=wrap;html=1;" parent="1" vertex="1">
          <mxGeometry x="250" y="420" width="40" height="40" as="geometry" />
        </mxCell>
        <mxCell id="mp0lWMER0TkYlhdWS5gS-78" value="" style="rounded=1;whiteSpace=wrap;html=1;" parent="1" vertex="1">
          <mxGeometry x="300" y="420" width="40" height="40" as="geometry" />
        </mxCell>
        <mxCell id="mp0lWMER0TkYlhdWS5gS-79" value="" style="rounded=1;whiteSpace=wrap;html=1;" parent="1" vertex="1">
          <mxGeometry x="350" y="420" width="40" height="40" as="geometry" />
        </mxCell>
        <mxCell id="mp0lWMER0TkYlhdWS5gS-80" value="" style="rounded=1;whiteSpace=wrap;html=1;" parent="1" vertex="1">
          <mxGeometry x="200" y="470" width="40" height="40" as="geometry" />
        </mxCell>
        <mxCell id="mp0lWMER0TkYlhdWS5gS-81" value="" style="rounded=1;whiteSpace=wrap;html=1;" parent="1" vertex="1">
          <mxGeometry x="250" y="470" width="40" height="40" as="geometry" />
        </mxCell>
        <mxCell id="mp0lWMER0TkYlhdWS5gS-82" value="" style="rounded=1;whiteSpace=wrap;html=1;" parent="1" vertex="1">
          <mxGeometry x="300" y="470" width="40" height="40" as="geometry" />
        </mxCell>
        <mxCell id="mp0lWMER0TkYlhdWS5gS-83" value="" style="rounded=1;whiteSpace=wrap;html=1;" parent="1" vertex="1">
          <mxGeometry x="350" y="470" width="40" height="40" as="geometry" />
        </mxCell>
        <mxCell id="mp0lWMER0TkYlhdWS5gS-100" value="" style="verticalLabelPosition=bottom;shadow=0;dashed=0;align=center;html=1;verticalAlign=top;strokeWidth=1;shape=mxgraph.mockup.markup.curlyBrace;whiteSpace=wrap;strokeColor=#999999;" parent="1" vertex="1">
          <mxGeometry x="200" y="60" width="190" height="20" as="geometry" />
        </mxCell>
        <mxCell id="mp0lWMER0TkYlhdWS5gS-101" value="4 banks" style="text;html=1;align=center;verticalAlign=middle;resizable=0;points=[];autosize=1;strokeColor=none;fillColor=none;" parent="1" vertex="1">
          <mxGeometry x="255" y="28" width="70" height="30" as="geometry" />
        </mxCell>
        <mxCell id="mp0lWMER0TkYlhdWS5gS-102" value="" style="labelPosition=right;align=left;strokeWidth=1;shape=mxgraph.mockup.markup.curlyBrace;html=1;shadow=0;dashed=0;strokeColor=#999999;direction=north;" parent="1" vertex="1">
          <mxGeometry x="160" y="120" width="20" height="390" as="geometry" />
        </mxCell>
        <mxCell id="mp0lWMER0TkYlhdWS5gS-103" value="8 rows" style="text;html=1;align=center;verticalAlign=middle;resizable=0;points=[];autosize=1;strokeColor=none;fillColor=none;" parent="1" vertex="1">
          <mxGeometry x="95" y="300" width="60" height="30" as="geometry" />
        </mxCell>
      </root>
    </mxGraphModel>
  </diagram>
</mxfile>
